<svg xmlns="http://www.w3.org/2000/svg" viewBox="0 0 1200 700"><rect width="1200" height="700" fill="#f8fafc"/><ellipse cx="600" cy="560" rx="460" ry="55" fill="#d1d5db"/><g transform="translate(120 215)"><path d="M110 235h105l70-120q23-40 70-40h270q47 0 76 40l76 120h92q36 0 36 36v67H70v-67q0-36 40-36z" fill="#0b0f19"/><path d="M330 96h250q30 0 50 26l51 78H278l52-78q9-26 0-26z" fill="#94a3b8"/><path d="M150 245h680" stroke="#e2e8f0" stroke-width="8"/><circle cx="230" cy="338" r="57" fill="#020617"/><circle cx="230" cy="338" r="25" fill="#cbd5e1"/><circle cx="770" cy="338" r="57" fill="#020617"/><circle cx="770" cy="338" r="25" fill="#cbd5e1"/></g></svg>
